<?xml version="1.0" encoding="UTF-8" standalone="no"?>
<!DOCTYPE svg PUBLIC "-//W3C//DTD SVG 1.1//EN"
 "http://www.w3.org/Graphics/SVG/1.1/DTD/svg11.dtd">
<!-- Generated by graphviz version 2.30.1 (20180420.1509)
 -->
<!-- Title: LEDdecoder Pages: 1 -->
<svg width="1514pt" height="726pt"
 viewBox="0.00 0.00 1514.00 726.00" xmlns="http://www.w3.org/2000/svg" xmlns:xlink="http://www.w3.org/1999/xlink">
<g id="graph0" class="graph" transform="scale(1 1) rotate(0) translate(4 722)">
<title>LEDdecoder</title>
<polygon fill="white" stroke="white" points="-4,5 -4,-722 1511,-722 1511,5 -4,5"/>
<text text-anchor="middle" x="753" y="-7.8" font-family="Times,serif" font-size="14.00">LEDdecoder</text>
<!-- n14 -->
<g id="node1" class="node"><title>n14</title>
<polygon fill="none" stroke="black" points="1109,-408.544 1109,-423.456 1093.18,-434 1070.82,-434 1055,-423.456 1055,-408.544 1070.82,-398 1093.18,-398 1109,-408.544"/>
<text text-anchor="middle" x="1082" y="-412.3" font-family="Times,serif" font-size="14.00">AN</text>
</g>
<!-- c30 -->
<g id="node21" class="node"><title>c30</title>
<polygon fill="none" stroke="black" points="1172,-435.5 1172,-504.5 1272,-504.5 1272,-435.5 1172,-435.5"/>
<text text-anchor="middle" x="1185" y="-489.3" font-family="Times,serif" font-size="14.00">A</text>
<polyline fill="none" stroke="black" points="1172,-481.5 1198,-481.5 "/>
<text text-anchor="middle" x="1185" y="-466.3" font-family="Times,serif" font-size="14.00">B</text>
<polyline fill="none" stroke="black" points="1172,-458.5 1198,-458.5 "/>
<text text-anchor="middle" x="1185" y="-443.3" font-family="Times,serif" font-size="14.00">S</text>
<polyline fill="none" stroke="black" points="1198,-435.5 1198,-504.5 "/>
<text text-anchor="middle" x="1222" y="-473.8" font-family="Times,serif" font-size="14.00">$24</text>
<text text-anchor="middle" x="1222" y="-458.8" font-family="Times,serif" font-size="14.00">$mux</text>
<polyline fill="none" stroke="black" points="1246,-435.5 1246,-504.5 "/>
<text text-anchor="middle" x="1259" y="-466.3" font-family="Times,serif" font-size="14.00">Y</text>
</g>
<!-- n14&#45;&gt;c30 -->
<g id="edge7" class="edge"><title>n14:e&#45;&gt;c30:p29:w</title>
<path fill="none" stroke="#7570b3" d="M1110,-416C1137.08,-416 1140.65,-439.947 1162.04,-445.746"/>
<polygon fill="#7570b3" stroke="#7570b3" points="1161.64,-449.224 1172,-447 1162.52,-442.279 1161.64,-449.224"/>
</g>
<!-- n15 -->
<g id="node2" class="node"><title>n15</title>
<polygon fill="none" stroke="black" points="1505,-462.544 1505,-477.456 1487.43,-488 1462.57,-488 1445,-477.456 1445,-462.544 1462.57,-452 1487.43,-452 1505,-462.544"/>
<text text-anchor="middle" x="1475" y="-466.3" font-family="Times,serif" font-size="14.00">LED</text>
</g>
<!-- n16 -->
<g id="node3" class="node"><title>n16</title>
<polygon fill="none" stroke="black" points="63.2801,-386.544 63.2801,-401.456 46.714,-412 23.286,-412 6.7199,-401.456 6.7199,-386.544 23.286,-376 46.714,-376 63.2801,-386.544"/>
<text text-anchor="middle" x="35" y="-390.3" font-family="Times,serif" font-size="14.00">char</text>
</g>
<!-- c21 -->
<g id="node6" class="node"><title>c21</title>
<polygon fill="none" stroke="black" points="106,-225 106,-271 238,-271 238,-225 106,-225"/>
<text text-anchor="middle" x="119" y="-255.8" font-family="Times,serif" font-size="14.00">A</text>
<polyline fill="none" stroke="black" points="106,-248 132,-248 "/>
<text text-anchor="middle" x="119" y="-232.8" font-family="Times,serif" font-size="14.00">B</text>
<polyline fill="none" stroke="black" points="132,-225 132,-271 "/>
<text text-anchor="middle" x="172" y="-251.8" font-family="Times,serif" font-size="14.00">$10_CMP0</text>
<text text-anchor="middle" x="172" y="-236.8" font-family="Times,serif" font-size="14.00">$eq</text>
<polyline fill="none" stroke="black" points="212,-225 212,-271 "/>
<text text-anchor="middle" x="225" y="-244.3" font-family="Times,serif" font-size="14.00">Y</text>
</g>
<!-- n16&#45;&gt;c21 -->
<g id="edge9" class="edge"><title>n16:e&#45;&gt;c21:p18:w</title>
<path fill="none" stroke="#1b9e77" stroke-width="3" d="M64,-394C122.512,-394 53.3734,-276.227 95.9288,-261.505"/>
<polygon fill="#1b9e77" stroke="#1b9e77" points="96.6271,-264.939 106,-260 95.5925,-258.016 96.6271,-264.939"/>
</g>
<!-- c22 -->
<g id="node8" class="node"><title>c22</title>
<polygon fill="none" stroke="black" points="106,-290 106,-336 238,-336 238,-290 106,-290"/>
<text text-anchor="middle" x="119" y="-320.8" font-family="Times,serif" font-size="14.00">A</text>
<polyline fill="none" stroke="black" points="106,-313 132,-313 "/>
<text text-anchor="middle" x="119" y="-297.8" font-family="Times,serif" font-size="14.00">B</text>
<polyline fill="none" stroke="black" points="132,-290 132,-336 "/>
<text text-anchor="middle" x="172" y="-316.8" font-family="Times,serif" font-size="14.00">$11_CMP0</text>
<text text-anchor="middle" x="172" y="-301.8" font-family="Times,serif" font-size="14.00">$eq</text>
<polyline fill="none" stroke="black" points="212,-290 212,-336 "/>
<text text-anchor="middle" x="225" y="-309.3" font-family="Times,serif" font-size="14.00">Y</text>
</g>
<!-- n16&#45;&gt;c22 -->
<g id="edge10" class="edge"><title>n16:e&#45;&gt;c22:p18:w</title>
<path fill="none" stroke="#1b9e77" stroke-width="3" d="M64,-394C95.8342,-394 76.0078,-339.747 96.1377,-327.456"/>
<polygon fill="#1b9e77" stroke="#1b9e77" points="97.142,-330.813 106,-325 95.4506,-324.02 97.142,-330.813"/>
</g>
<!-- c23 -->
<g id="node10" class="node"><title>c23</title>
<polygon fill="none" stroke="black" points="106,-355 106,-401 238,-401 238,-355 106,-355"/>
<text text-anchor="middle" x="119" y="-385.8" font-family="Times,serif" font-size="14.00">A</text>
<polyline fill="none" stroke="black" points="106,-378 132,-378 "/>
<text text-anchor="middle" x="119" y="-362.8" font-family="Times,serif" font-size="14.00">B</text>
<polyline fill="none" stroke="black" points="132,-355 132,-401 "/>
<text text-anchor="middle" x="172" y="-381.8" font-family="Times,serif" font-size="14.00">$12_CMP0</text>
<text text-anchor="middle" x="172" y="-366.8" font-family="Times,serif" font-size="14.00">$eq</text>
<polyline fill="none" stroke="black" points="212,-355 212,-401 "/>
<text text-anchor="middle" x="225" y="-374.3" font-family="Times,serif" font-size="14.00">Y</text>
</g>
<!-- n16&#45;&gt;c23 -->
<g id="edge11" class="edge"><title>n16:e&#45;&gt;c23:p18:w</title>
<path fill="none" stroke="#1b9e77" stroke-width="3" d="M64,-394C78.7958,-394 84.7172,-391.51 95.7691,-390.459"/>
<polygon fill="#1b9e77" stroke="#1b9e77" points="96.1669,-393.945 106,-390 95.8532,-386.952 96.1669,-393.945"/>
</g>
<!-- c24 -->
<g id="node12" class="node"><title>c24</title>
<polygon fill="none" stroke="black" points="106,-420 106,-466 238,-466 238,-420 106,-420"/>
<text text-anchor="middle" x="119" y="-450.8" font-family="Times,serif" font-size="14.00">A</text>
<polyline fill="none" stroke="black" points="106,-443 132,-443 "/>
<text text-anchor="middle" x="119" y="-427.8" font-family="Times,serif" font-size="14.00">B</text>
<polyline fill="none" stroke="black" points="132,-420 132,-466 "/>
<text text-anchor="middle" x="172" y="-446.8" font-family="Times,serif" font-size="14.00">$13_CMP0</text>
<text text-anchor="middle" x="172" y="-431.8" font-family="Times,serif" font-size="14.00">$eq</text>
<polyline fill="none" stroke="black" points="212,-420 212,-466 "/>
<text text-anchor="middle" x="225" y="-439.3" font-family="Times,serif" font-size="14.00">Y</text>
</g>
<!-- n16&#45;&gt;c24 -->
<g id="edge12" class="edge"><title>n16:e&#45;&gt;c24:p18:w</title>
<path fill="none" stroke="#1b9e77" stroke-width="3" d="M64,-394C92.8014,-394 78.1554,-440.703 96.0949,-452.379"/>
<polygon fill="#1b9e77" stroke="#1b9e77" points="95.4374,-455.825 106,-455 97.2281,-449.058 95.4374,-455.825"/>
</g>
<!-- c25 -->
<g id="node14" class="node"><title>c25</title>
<polygon fill="none" stroke="black" points="106,-485 106,-531 238,-531 238,-485 106,-485"/>
<text text-anchor="middle" x="119" y="-515.8" font-family="Times,serif" font-size="14.00">A</text>
<polyline fill="none" stroke="black" points="106,-508 132,-508 "/>
<text text-anchor="middle" x="119" y="-492.8" font-family="Times,serif" font-size="14.00">B</text>
<polyline fill="none" stroke="black" points="132,-485 132,-531 "/>
<text text-anchor="middle" x="172" y="-511.8" font-family="Times,serif" font-size="14.00">$14_CMP0</text>
<text text-anchor="middle" x="172" y="-496.8" font-family="Times,serif" font-size="14.00">$eq</text>
<polyline fill="none" stroke="black" points="212,-485 212,-531 "/>
<text text-anchor="middle" x="225" y="-504.3" font-family="Times,serif" font-size="14.00">Y</text>
</g>
<!-- n16&#45;&gt;c25 -->
<g id="edge13" class="edge"><title>n16:e&#45;&gt;c25:p18:w</title>
<path fill="none" stroke="#1b9e77" stroke-width="3" d="M64,-394C119.109,-394 56.4766,-503.821 95.9483,-518.407"/>
<polygon fill="#1b9e77" stroke="#1b9e77" points="95.5754,-521.891 106,-520 96.6712,-514.978 95.5754,-521.891"/>
</g>
<!-- c26 -->
<g id="node16" class="node"><title>c26</title>
<polygon fill="none" stroke="black" points="106,-550 106,-596 238,-596 238,-550 106,-550"/>
<text text-anchor="middle" x="119" y="-580.8" font-family="Times,serif" font-size="14.00">A</text>
<polyline fill="none" stroke="black" points="106,-573 132,-573 "/>
<text text-anchor="middle" x="119" y="-557.8" font-family="Times,serif" font-size="14.00">B</text>
<polyline fill="none" stroke="black" points="132,-550 132,-596 "/>
<text text-anchor="middle" x="172" y="-576.8" font-family="Times,serif" font-size="14.00">$15_CMP0</text>
<text text-anchor="middle" x="172" y="-561.8" font-family="Times,serif" font-size="14.00">$eq</text>
<polyline fill="none" stroke="black" points="212,-550 212,-596 "/>
<text text-anchor="middle" x="225" y="-569.3" font-family="Times,serif" font-size="14.00">Y</text>
</g>
<!-- n16&#45;&gt;c26 -->
<g id="edge14" class="edge"><title>n16:e&#45;&gt;c26:p18:w</title>
<path fill="none" stroke="#1b9e77" stroke-width="3" d="M64,-394C147.182,-394 30.0086,-568.939 95.9728,-583.972"/>
<polygon fill="#1b9e77" stroke="#1b9e77" points="95.6952,-587.462 106,-585 96.409,-580.499 95.6952,-587.462"/>
</g>
<!-- c27 -->
<g id="node18" class="node"><title>c27</title>
<polygon fill="none" stroke="black" points="106,-672 106,-718 238,-718 238,-672 106,-672"/>
<text text-anchor="middle" x="119" y="-702.8" font-family="Times,serif" font-size="14.00">A</text>
<polyline fill="none" stroke="black" points="106,-695 132,-695 "/>
<text text-anchor="middle" x="119" y="-679.8" font-family="Times,serif" font-size="14.00">B</text>
<polyline fill="none" stroke="black" points="132,-672 132,-718 "/>
<text text-anchor="middle" x="172" y="-698.8" font-family="Times,serif" font-size="14.00">$16_CMP0</text>
<text text-anchor="middle" x="172" y="-683.8" font-family="Times,serif" font-size="14.00">$eq</text>
<polyline fill="none" stroke="black" points="212,-672 212,-718 "/>
<text text-anchor="middle" x="225" y="-691.3" font-family="Times,serif" font-size="14.00">Y</text>
</g>
<!-- n16&#45;&gt;c27 -->
<g id="edge15" class="edge"><title>n16:e&#45;&gt;c27:p18:w</title>
<path fill="none" stroke="#1b9e77" stroke-width="3" d="M64,-394C130.478,-394 45.726,-674.859 96.2541,-704.481"/>
<polygon fill="#1b9e77" stroke="#1b9e77" points="95.4422,-707.886 106,-707 97.1943,-701.108 95.4422,-707.886"/>
</g>
<!-- c28 -->
<g id="node19" class="node"><title>c28</title>
<polygon fill="none" stroke="black" points="106,-615 106,-653 238,-653 238,-615 106,-615"/>
<text text-anchor="middle" x="119" y="-630.3" font-family="Times,serif" font-size="14.00">A</text>
<polyline fill="none" stroke="black" points="132,-615 132,-653 "/>
<text text-anchor="middle" x="172" y="-637.8" font-family="Times,serif" font-size="14.00">$17_CMP0</text>
<text text-anchor="middle" x="172" y="-622.8" font-family="Times,serif" font-size="14.00">$logic_not</text>
<polyline fill="none" stroke="black" points="212,-615 212,-653 "/>
<text text-anchor="middle" x="225" y="-630.3" font-family="Times,serif" font-size="14.00">Y</text>
</g>
<!-- n16&#45;&gt;c28 -->
<g id="edge16" class="edge"><title>n16:e&#45;&gt;c28:p18:w</title>
<path fill="none" stroke="#1b9e77" stroke-width="3" d="M64,-394C114.337,-394 60.5825,-601.437 96.2815,-630.607"/>
<polygon fill="#1b9e77" stroke="#1b9e77" points="95.4052,-634.008 106,-634 97.7124,-627.4 95.4052,-634.008"/>
</g>
<!-- c33 -->
<g id="node29" class="node"><title>c33</title>
<polygon fill="none" stroke="black" points="109.5,-30 109.5,-76 234.5,-76 234.5,-30 109.5,-30"/>
<text text-anchor="middle" x="122.5" y="-60.8" font-family="Times,serif" font-size="14.00">A</text>
<polyline fill="none" stroke="black" points="109.5,-53 135.5,-53 "/>
<text text-anchor="middle" x="122.5" y="-37.8" font-family="Times,serif" font-size="14.00">B</text>
<polyline fill="none" stroke="black" points="135.5,-30 135.5,-76 "/>
<text text-anchor="middle" x="172" y="-56.8" font-family="Times,serif" font-size="14.00">$7_CMP0</text>
<text text-anchor="middle" x="172" y="-41.8" font-family="Times,serif" font-size="14.00">$eq</text>
<polyline fill="none" stroke="black" points="208.5,-30 208.5,-76 "/>
<text text-anchor="middle" x="221.5" y="-49.3" font-family="Times,serif" font-size="14.00">Y</text>
</g>
<!-- n16&#45;&gt;c33 -->
<g id="edge17" class="edge"><title>n16:e&#45;&gt;c33:p18:w</title>
<path fill="none" stroke="#1b9e77" stroke-width="3" d="M64,-394C134.016,-394 44.2949,-97.5657 98.0879,-67.459"/>
<polygon fill="#1b9e77" stroke="#1b9e77" points="99.137,-70.805 108,-65 97.4514,-64.0109 99.137,-70.805"/>
</g>
<!-- c34 -->
<g id="node31" class="node"><title>c34</title>
<polygon fill="none" stroke="black" points="109.5,-95 109.5,-141 234.5,-141 234.5,-95 109.5,-95"/>
<text text-anchor="middle" x="122.5" y="-125.8" font-family="Times,serif" font-size="14.00">A</text>
<polyline fill="none" stroke="black" points="109.5,-118 135.5,-118 "/>
<text text-anchor="middle" x="122.5" y="-102.8" font-family="Times,serif" font-size="14.00">B</text>
<polyline fill="none" stroke="black" points="135.5,-95 135.5,-141 "/>
<text text-anchor="middle" x="172" y="-121.8" font-family="Times,serif" font-size="14.00">$8_CMP0</text>
<text text-anchor="middle" x="172" y="-106.8" font-family="Times,serif" font-size="14.00">$eq</text>
<polyline fill="none" stroke="black" points="208.5,-95 208.5,-141 "/>
<text text-anchor="middle" x="221.5" y="-114.3" font-family="Times,serif" font-size="14.00">Y</text>
</g>
<!-- n16&#45;&gt;c34 -->
<g id="edge18" class="edge"><title>n16:e&#45;&gt;c34:p18:w</title>
<path fill="none" stroke="#1b9e77" stroke-width="3" d="M64,-394C119.759,-394 57.368,-161.969 98.358,-132.965"/>
<polygon fill="#1b9e77" stroke="#1b9e77" points="99.4704,-136.285 108,-130 97.413,-129.594 99.4704,-136.285"/>
</g>
<!-- c35 -->
<g id="node33" class="node"><title>c35</title>
<polygon fill="none" stroke="black" points="109.5,-160 109.5,-206 234.5,-206 234.5,-160 109.5,-160"/>
<text text-anchor="middle" x="122.5" y="-190.8" font-family="Times,serif" font-size="14.00">A</text>
<polyline fill="none" stroke="black" points="109.5,-183 135.5,-183 "/>
<text text-anchor="middle" x="122.5" y="-167.8" font-family="Times,serif" font-size="14.00">B</text>
<polyline fill="none" stroke="black" points="135.5,-160 135.5,-206 "/>
<text text-anchor="middle" x="172" y="-186.8" font-family="Times,serif" font-size="14.00">$9_CMP0</text>
<text text-anchor="middle" x="172" y="-171.8" font-family="Times,serif" font-size="14.00">$eq</text>
<polyline fill="none" stroke="black" points="208.5,-160 208.5,-206 "/>
<text text-anchor="middle" x="221.5" y="-179.3" font-family="Times,serif" font-size="14.00">Y</text>
</g>
<!-- n16&#45;&gt;c35 -->
<g id="edge19" class="edge"><title>n16:e&#45;&gt;c35:p18:w</title>
<path fill="none" stroke="#1b9e77" stroke-width="3" d="M64,-394C150.865,-394 28.2878,-210.989 97.9723,-195.977"/>
<polygon fill="#1b9e77" stroke="#1b9e77" points="98.3865,-199.453 108,-195 97.7077,-192.486 98.3865,-199.453"/>
</g>
<!-- n17 -->
<g id="node4" class="node"><title>n17</title>
<polygon fill="none" stroke="black" points="1251.59,-391.544 1251.59,-406.456 1234.26,-417 1209.74,-417 1192.41,-406.456 1192.41,-391.544 1209.74,-381 1234.26,-381 1251.59,-391.544"/>
<text text-anchor="middle" x="1222" y="-395.3" font-family="Times,serif" font-size="14.00">reset</text>
</g>
<!-- c31 -->
<g id="node23" class="node"><title>c31</title>
<polygon fill="none" stroke="black" points="1308,-435.5 1308,-504.5 1408,-504.5 1408,-435.5 1308,-435.5"/>
<text text-anchor="middle" x="1321" y="-489.3" font-family="Times,serif" font-size="14.00">A</text>
<polyline fill="none" stroke="black" points="1308,-481.5 1334,-481.5 "/>
<text text-anchor="middle" x="1321" y="-466.3" font-family="Times,serif" font-size="14.00">B</text>
<polyline fill="none" stroke="black" points="1308,-458.5 1334,-458.5 "/>
<text text-anchor="middle" x="1321" y="-443.3" font-family="Times,serif" font-size="14.00">S</text>
<polyline fill="none" stroke="black" points="1334,-435.5 1334,-504.5 "/>
<text text-anchor="middle" x="1358" y="-473.8" font-family="Times,serif" font-size="14.00">$30</text>
<text text-anchor="middle" x="1358" y="-458.8" font-family="Times,serif" font-size="14.00">$mux</text>
<polyline fill="none" stroke="black" points="1382,-435.5 1382,-504.5 "/>
<text text-anchor="middle" x="1395" y="-466.3" font-family="Times,serif" font-size="14.00">Y</text>
</g>
<!-- n17&#45;&gt;c31 -->
<g id="edge20" class="edge"><title>n17:e&#45;&gt;c31:p29:w</title>
<path fill="none" stroke="#1b9e77" d="M1253,-399C1281.52,-399 1277.33,-436.079 1297.93,-445.059"/>
<polygon fill="#1b9e77" stroke="#1b9e77" points="1297.52,-448.545 1308,-447 1298.84,-441.671 1297.52,-448.545"/>
</g>
<!-- v0 -->
<g id="node5" class="node"><title>v0</title>
<ellipse fill="none" stroke="black" cx="35" cy="-232" rx="34.394" ry="18"/>
<text text-anchor="middle" x="35" y="-228.3" font-family="Times,serif" font-size="14.00">4&#39;0111</text>
</g>
<!-- v0&#45;&gt;c21 -->
<g id="edge29" class="edge"><title>v0:e&#45;&gt;c21:p19:w</title>
<path fill="none" stroke="#666666" stroke-width="3" d="M70,-232C82.0738,-232 87.2315,-234.25 95.8473,-235.375"/>
<polygon fill="#666666" stroke="#666666" points="95.8038,-238.879 106,-236 96.234,-231.892 95.8038,-238.879"/>
</g>
<!-- x11 -->
<g id="node27" class="node"><title>x11</title>
<path fill="none" stroke="black" d="M606.5,-251.5C606.5,-251.5 659.5,-251.5 659.5,-251.5 665.5,-251.5 671.5,-257.5 671.5,-263.5 671.5,-263.5 671.5,-492.5 671.5,-492.5 671.5,-498.5 665.5,-504.5 659.5,-504.5 659.5,-504.5 606.5,-504.5 606.5,-504.5 600.5,-504.5 594.5,-498.5 594.5,-492.5 594.5,-492.5 594.5,-263.5 594.5,-263.5 594.5,-257.5 600.5,-251.5 606.5,-251.5"/>
<text text-anchor="middle" x="633" y="-489.3" font-family="Times,serif" font-size="14.00">0:0 &#45; 10:10</text>
<polyline fill="none" stroke="black" points="594.5,-481.5 671.5,-481.5 "/>
<text text-anchor="middle" x="633" y="-466.3" font-family="Times,serif" font-size="14.00">0:0 &#45; 9:9</text>
<polyline fill="none" stroke="black" points="594.5,-458.5 671.5,-458.5 "/>
<text text-anchor="middle" x="633" y="-443.3" font-family="Times,serif" font-size="14.00">0:0 &#45; 8:8</text>
<polyline fill="none" stroke="black" points="594.5,-435.5 671.5,-435.5 "/>
<text text-anchor="middle" x="633" y="-420.3" font-family="Times,serif" font-size="14.00">0:0 &#45; 7:7</text>
<polyline fill="none" stroke="black" points="594.5,-412.5 671.5,-412.5 "/>
<text text-anchor="middle" x="633" y="-397.3" font-family="Times,serif" font-size="14.00">0:0 &#45; 6:6</text>
<polyline fill="none" stroke="black" points="594.5,-389.5 671.5,-389.5 "/>
<text text-anchor="middle" x="633" y="-374.3" font-family="Times,serif" font-size="14.00">0:0 &#45; 5:5</text>
<polyline fill="none" stroke="black" points="594.5,-366.5 671.5,-366.5 "/>
<text text-anchor="middle" x="633" y="-351.3" font-family="Times,serif" font-size="14.00">0:0 &#45; 4:4</text>
<polyline fill="none" stroke="black" points="594.5,-343.5 671.5,-343.5 "/>
<text text-anchor="middle" x="633" y="-328.3" font-family="Times,serif" font-size="14.00">0:0 &#45; 3:3</text>
<polyline fill="none" stroke="black" points="594.5,-320.5 671.5,-320.5 "/>
<text text-anchor="middle" x="633" y="-305.3" font-family="Times,serif" font-size="14.00">0:0 &#45; 2:2</text>
<polyline fill="none" stroke="black" points="594.5,-297.5 671.5,-297.5 "/>
<text text-anchor="middle" x="633" y="-282.3" font-family="Times,serif" font-size="14.00">0:0 &#45; 1:1</text>
<polyline fill="none" stroke="black" points="594.5,-274.5 671.5,-274.5 "/>
<text text-anchor="middle" x="633" y="-259.3" font-family="Times,serif" font-size="14.00">0:0 &#45; 0:0</text>
</g>
<!-- c21&#45;&gt;x11 -->
<g id="edge22" class="edge"><title>c21:p20:e&#45;&gt;x11:s3:w</title>
<path fill="none" stroke="#e6ab02" d="M238,-248C396.651,-248 429.484,-328.429 582.729,-331.885"/>
<polygon fill="#e6ab02" stroke="#e6ab02" points="582.962,-335.388 593,-332 583.04,-328.388 582.962,-335.388"/>
</g>
<!-- v1 -->
<g id="node7" class="node"><title>v1</title>
<ellipse fill="none" stroke="black" cx="35" cy="-286" rx="34.394" ry="18"/>
<text text-anchor="middle" x="35" y="-282.3" font-family="Times,serif" font-size="14.00">4&#39;0110</text>
</g>
<!-- v1&#45;&gt;c22 -->
<g id="edge30" class="edge"><title>v1:e&#45;&gt;c22:p19:w</title>
<path fill="none" stroke="#a6761d" stroke-width="3" d="M70,-286C83.2708,-286 87.1628,-294.793 96.0372,-298.914"/>
<polygon fill="#a6761d" stroke="#a6761d" points="95.495,-302.377 106,-301 96.9294,-295.525 95.495,-302.377"/>
</g>
<!-- c22&#45;&gt;x11 -->
<g id="edge23" class="edge"><title>c22:p20:e&#45;&gt;x11:s4:w</title>
<path fill="none" stroke="#d95f02" d="M238,-313C393.465,-313 432.465,-353.215 582.926,-354.943"/>
<polygon fill="#d95f02" stroke="#d95f02" points="582.98,-358.443 593,-355 583.02,-351.443 582.98,-358.443"/>
</g>
<!-- v2 -->
<g id="node9" class="node"><title>v2</title>
<ellipse fill="none" stroke="black" cx="35" cy="-340" rx="34.394" ry="18"/>
<text text-anchor="middle" x="35" y="-336.3" font-family="Times,serif" font-size="14.00">4&#39;0101</text>
</g>
<!-- v2&#45;&gt;c23 -->
<g id="edge35" class="edge"><title>v2:e&#45;&gt;c23:p19:w</title>
<path fill="none" stroke="#66a61e" stroke-width="3" d="M70,-340C85.5734,-340 86.696,-356.188 96.1729,-363.017"/>
<polygon fill="#66a61e" stroke="#66a61e" points="95.4145,-366.445 106,-366 97.4475,-359.747 95.4145,-366.445"/>
</g>
<!-- c23&#45;&gt;x11 -->
<g id="edge24" class="edge"><title>c23:p20:e&#45;&gt;x11:s5:w</title>
<path fill="none" stroke="#d95f02" d="M238,-378C392.388,-378 433.473,-378 582.992,-378"/>
<polygon fill="#d95f02" stroke="#d95f02" points="583,-381.5 593,-378 583,-374.5 583,-381.5"/>
</g>
<!-- v3 -->
<g id="node11" class="node"><title>v3</title>
<ellipse fill="none" stroke="black" cx="35" cy="-448" rx="34.394" ry="18"/>
<text text-anchor="middle" x="35" y="-444.3" font-family="Times,serif" font-size="14.00">4&#39;0100</text>
</g>
<!-- v3&#45;&gt;c24 -->
<g id="edge36" class="edge"><title>v3:e&#45;&gt;c24:p19:w</title>
<path fill="none" stroke="#a6761d" stroke-width="3" d="M70,-448C83.6854,-448 87.1518,-437.831 96.2067,-433.222"/>
<polygon fill="#a6761d" stroke="#a6761d" points="97.0226,-436.626 106,-431 95.4734,-429.8 97.0226,-436.626"/>
</g>
<!-- c24&#45;&gt;x11 -->
<g id="edge25" class="edge"><title>c24:p20:e&#45;&gt;x11:s6:w</title>
<path fill="none" stroke="#d95f02" d="M238,-443C393.465,-443 432.465,-402.785 582.926,-401.057"/>
<polygon fill="#d95f02" stroke="#d95f02" points="583.02,-404.557 593,-401 582.98,-397.557 583.02,-404.557"/>
</g>
<!-- v4 -->
<g id="node13" class="node"><title>v4</title>
<ellipse fill="none" stroke="black" cx="35" cy="-502" rx="34.394" ry="18"/>
<text text-anchor="middle" x="35" y="-498.3" font-family="Times,serif" font-size="14.00">4&#39;0011</text>
</g>
<!-- v4&#45;&gt;c25 -->
<g id="edge37" class="edge"><title>v4:e&#45;&gt;c25:p19:w</title>
<path fill="none" stroke="#7570b3" stroke-width="3" d="M70,-502C82.1655,-502 87.2086,-498.625 95.8129,-496.938"/>
<polygon fill="#7570b3" stroke="#7570b3" points="96.3629,-500.402 106,-496 95.7213,-493.431 96.3629,-500.402"/>
</g>
<!-- c25&#45;&gt;x11 -->
<g id="edge26" class="edge"><title>c25:p20:e&#45;&gt;x11:s7:w</title>
<path fill="none" stroke="#1b9e77" d="M238,-508C396.651,-508 429.484,-427.571 582.729,-424.115"/>
<polygon fill="#1b9e77" stroke="#1b9e77" points="583.04,-427.612 593,-424 582.962,-420.612 583.04,-427.612"/>
</g>
<!-- v5 -->
<g id="node15" class="node"><title>v5</title>
<ellipse fill="none" stroke="black" cx="35" cy="-561" rx="34.394" ry="18"/>
<text text-anchor="middle" x="35" y="-557.3" font-family="Times,serif" font-size="14.00">4&#39;0010</text>
</g>
<!-- v5&#45;&gt;c26 -->
<g id="edge38" class="edge"><title>v5:e&#45;&gt;c26:p19:w</title>
<path fill="none" stroke="#e6ab02" stroke-width="3" d="M70,-561C82,-561 87.25,-561 95.875,-561"/>
<polygon fill="#e6ab02" stroke="#e6ab02" points="96,-564.5 106,-561 96,-557.5 96,-564.5"/>
</g>
<!-- c26&#45;&gt;x11 -->
<g id="edge27" class="edge"><title>c26:p20:e&#45;&gt;x11:s8:w</title>
<path fill="none" stroke="#1b9e77" d="M238,-573C268.718,-573 248.91,-531.723 274,-514 389.555,-432.377 445.479,-446.278 582.959,-446.974"/>
<polygon fill="#1b9e77" stroke="#1b9e77" points="582.991,-450.474 593,-447 583.009,-443.474 582.991,-450.474"/>
</g>
<!-- v6 -->
<g id="node17" class="node"><title>v6</title>
<ellipse fill="none" stroke="black" cx="35" cy="-683" rx="34.394" ry="18"/>
<text text-anchor="middle" x="35" y="-679.3" font-family="Times,serif" font-size="14.00">4&#39;0001</text>
</g>
<!-- v6&#45;&gt;c27 -->
<g id="edge39" class="edge"><title>v6:e&#45;&gt;c27:p19:w</title>
<path fill="none" stroke="#7570b3" stroke-width="3" d="M70,-683C82,-683 87.25,-683 95.875,-683"/>
<polygon fill="#7570b3" stroke="#7570b3" points="96,-686.5 106,-683 96,-679.5 96,-686.5"/>
</g>
<!-- c27&#45;&gt;x11 -->
<g id="edge28" class="edge"><title>c27:p20:e&#45;&gt;x11:s9:w</title>
<path fill="none" stroke="#7570b3" d="M238,-695C320.02,-695 214.31,-570.253 274,-514 375.612,-418.238 446.358,-467.446 582.644,-469.906"/>
<polygon fill="#7570b3" stroke="#7570b3" points="582.969,-473.409 593,-470 583.032,-466.409 582.969,-473.409"/>
</g>
<!-- c28&#45;&gt;x11 -->
<g id="edge3" class="edge"><title>c28:p20:e&#45;&gt;x11:s10:w</title>
<path fill="none" stroke="#1b9e77" d="M238,-634C293.682,-634 230.443,-548.688 274,-514 382.431,-427.646 447.677,-489.796 582.728,-492.883"/>
<polygon fill="#1b9e77" stroke="#1b9e77" points="582.961,-496.385 593,-493 583.041,-489.386 582.961,-496.385"/>
</g>
<!-- v7 -->
<g id="node20" class="node"><title>v7</title>
<ellipse fill="none" stroke="black" cx="1082" cy="-470" rx="47.3916" ry="18"/>
<text text-anchor="middle" x="1082" y="-466.3" font-family="Times,serif" font-size="14.00">7&#39;1111111</text>
</g>
<!-- v7&#45;&gt;c30 -->
<g id="edge40" class="edge"><title>v7:e&#45;&gt;c30:p19:w</title>
<path fill="none" stroke="#d95f02" stroke-width="3" d="M1131,-470C1145.24,-470 1151.13,-470 1161.72,-470"/>
<polygon fill="#d95f02" stroke="#d95f02" points="1162,-473.5 1172,-470 1162,-466.5 1162,-473.5"/>
</g>
<!-- c30&#45;&gt;c31 -->
<g id="edge2" class="edge"><title>c30:p20:e&#45;&gt;c31:p19:w</title>
<path fill="none" stroke="#1b9e77" stroke-width="3" d="M1272,-470C1284,-470 1289.25,-470 1297.88,-470"/>
<polygon fill="#1b9e77" stroke="#1b9e77" points="1298,-473.5 1308,-470 1298,-466.5 1298,-473.5"/>
</g>
<!-- v8 -->
<g id="node22" class="node"><title>v8</title>
<ellipse fill="none" stroke="black" cx="1222" cy="-541" rx="47.3916" ry="18"/>
<text text-anchor="middle" x="1222" y="-537.3" font-family="Times,serif" font-size="14.00">7&#39;1111111</text>
</g>
<!-- v8&#45;&gt;c31 -->
<g id="edge41" class="edge"><title>v8:e&#45;&gt;c31:p18:w</title>
<path fill="none" stroke="#d95f02" stroke-width="3" d="M1271,-541C1293.73,-541 1285.27,-506.828 1298.25,-496.149"/>
<polygon fill="#d95f02" stroke="#d95f02" points="1299.56,-499.404 1308,-493 1297.41,-492.743 1299.56,-499.404"/>
</g>
<!-- c31&#45;&gt;n15 -->
<g id="edge8" class="edge"><title>c31:p20:e&#45;&gt;n15:w</title>
<path fill="none" stroke="#d95f02" stroke-width="3" d="M1408,-470C1420,-470 1425.25,-470 1433.88,-470"/>
<polygon fill="#d95f02" stroke="#d95f02" points="1434,-473.5 1444,-470 1434,-466.5 1434,-473.5"/>
</g>
<!-- v9 -->
<g id="node24" class="node"><title>v9</title>
<ellipse fill="none" stroke="black" cx="633" cy="-595" rx="47.3916" ry="18"/>
<text text-anchor="middle" x="633" y="-591.3" font-family="Times,serif" font-size="14.00">7&#39;1111111</text>
</g>
<!-- c32 -->
<g id="node26" class="node"><title>c32</title>
<polygon fill="none" stroke="black" points="1028.5,-506.5 1028.5,-575.5 1135.5,-575.5 1135.5,-506.5 1028.5,-506.5"/>
<text text-anchor="middle" x="1041.5" y="-560.3" font-family="Times,serif" font-size="14.00">A</text>
<polyline fill="none" stroke="black" points="1028.5,-552.5 1054.5,-552.5 "/>
<text text-anchor="middle" x="1041.5" y="-537.3" font-family="Times,serif" font-size="14.00">B</text>
<polyline fill="none" stroke="black" points="1028.5,-529.5 1054.5,-529.5 "/>
<text text-anchor="middle" x="1041.5" y="-514.3" font-family="Times,serif" font-size="14.00">S</text>
<polyline fill="none" stroke="black" points="1054.5,-506.5 1054.5,-575.5 "/>
<text text-anchor="middle" x="1082" y="-544.8" font-family="Times,serif" font-size="14.00">$6</text>
<text text-anchor="middle" x="1082" y="-529.8" font-family="Times,serif" font-size="14.00">$pmux</text>
<polyline fill="none" stroke="black" points="1109.5,-506.5 1109.5,-575.5 "/>
<text text-anchor="middle" x="1122.5" y="-537.3" font-family="Times,serif" font-size="14.00">Y</text>
</g>
<!-- v9&#45;&gt;c32 -->
<g id="edge42" class="edge"><title>v9:e&#45;&gt;c32:p18:w</title>
<path fill="none" stroke="#e6ab02" stroke-width="3" d="M682,-595C820.299,-595 854.375,-581.637 992,-568 1004.02,-566.809 1009.2,-565.155 1017.84,-564.402"/>
<polygon fill="#e6ab02" stroke="#e6ab02" points="1018.15,-567.892 1028,-564 1017.87,-560.898 1018.15,-567.892"/>
</g>
<!-- v10 -->
<g id="node25" class="node"><title>v10</title>
<ellipse fill="none" stroke="black" cx="633" cy="-541" rx="358.536" ry="18"/>
<text text-anchor="middle" x="633" y="-537.3" font-family="Times,serif" font-size="14.00">77&#39;10000001111001000110001100000011001001001000000101111000000000000100000111111</text>
</g>
<!-- v10&#45;&gt;c32 -->
<g id="edge31" class="edge"><title>v10:e&#45;&gt;c32:p19:w</title>
<path fill="none" stroke="#7570b3" stroke-width="3" d="M992,-541C1004,-541 1009.25,-541 1017.88,-541"/>
<polygon fill="#7570b3" stroke="#7570b3" points="1018,-544.5 1028,-541 1018,-537.5 1018,-544.5"/>
</g>
<!-- c32&#45;&gt;c30 -->
<g id="edge21" class="edge"><title>c32:p20:e&#45;&gt;c30:p18:w</title>
<path fill="none" stroke="#e6ab02" stroke-width="3" d="M1136,-541C1158.5,-541 1149.68,-506.828 1162.39,-496.149"/>
<polygon fill="#e6ab02" stroke="#e6ab02" points="1163.59,-499.439 1172,-493 1161.41,-492.787 1163.59,-499.439"/>
</g>
<!-- x11&#45;&gt;c32 -->
<g id="edge1" class="edge"><title>x11:e&#45;&gt;c32:p29:w</title>
<path fill="none" stroke="#66a61e" stroke-width="3" d="M685.019,-378.822C770.073,-389.758 930.996,-506.283 1016.02,-517.183"/>
<polygon fill="none" stroke="#66a61e" points="684.972,-378.819 678.713,-382.4 673,-378 679.259,-374.419 684.972,-378.819"/>
<polygon fill="none" stroke="#66a61e" points="1016.03,-517.184 1022.29,-513.601 1028,-518 1021.74,-521.582 1016.03,-517.184"/>
</g>
<!-- v12 -->
<g id="node28" class="node"><title>v12</title>
<ellipse fill="none" stroke="black" cx="35" cy="-41" rx="34.394" ry="18"/>
<text text-anchor="middle" x="35" y="-37.3" font-family="Times,serif" font-size="14.00">4&#39;1101</text>
</g>
<!-- v12&#45;&gt;c33 -->
<g id="edge32" class="edge"><title>v12:e&#45;&gt;c33:p19:w</title>
<path fill="none" stroke="#a6761d" stroke-width="3" d="M70,-41C82.9306,-41 88.4361,-41 97.8862,-41"/>
<polygon fill="#a6761d" stroke="#a6761d" points="98,-44.5001 108,-41 98,-37.5001 98,-44.5001"/>
</g>
<!-- c33&#45;&gt;x11 -->
<g id="edge4" class="edge"><title>c33:p20:e&#45;&gt;x11:s0:w</title>
<path fill="none" stroke="#7570b3" d="M236,-53C416.667,-53 409.265,-255.279 582.952,-262.786"/>
<polygon fill="#7570b3" stroke="#7570b3" points="582.928,-266.286 593,-263 583.077,-259.288 582.928,-266.286"/>
</g>
<!-- v13 -->
<g id="node30" class="node"><title>v13</title>
<ellipse fill="none" stroke="black" cx="35" cy="-106" rx="34.394" ry="18"/>
<text text-anchor="middle" x="35" y="-102.3" font-family="Times,serif" font-size="14.00">4&#39;1001</text>
</g>
<!-- v13&#45;&gt;c34 -->
<g id="edge33" class="edge"><title>v13:e&#45;&gt;c34:p19:w</title>
<path fill="none" stroke="#e6ab02" stroke-width="3" d="M70,-106C82.9306,-106 88.4361,-106 97.8862,-106"/>
<polygon fill="#e6ab02" stroke="#e6ab02" points="98,-109.5 108,-106 98,-102.5 98,-109.5"/>
</g>
<!-- c34&#45;&gt;x11 -->
<g id="edge5" class="edge"><title>c34:p20:e&#45;&gt;x11:s1:w</title>
<path fill="none" stroke="#e7298a" d="M236,-118C407.932,-118 417.333,-279.502 582.916,-285.81"/>
<polygon fill="#e7298a" stroke="#e7298a" points="582.936,-289.311 593,-286 583.068,-282.312 582.936,-289.311"/>
</g>
<!-- v14 -->
<g id="node32" class="node"><title>v14</title>
<ellipse fill="none" stroke="black" cx="35" cy="-171" rx="34.394" ry="18"/>
<text text-anchor="middle" x="35" y="-167.3" font-family="Times,serif" font-size="14.00">4&#39;1000</text>
</g>
<!-- v14&#45;&gt;c35 -->
<g id="edge34" class="edge"><title>v14:e&#45;&gt;c35:p19:w</title>
<path fill="none" stroke="#1b9e77" stroke-width="3" d="M70,-171C82.9306,-171 88.4361,-171 97.8862,-171"/>
<polygon fill="#1b9e77" stroke="#1b9e77" points="98,-174.5 108,-171 98,-167.5 98,-174.5"/>
</g>
<!-- c35&#45;&gt;x11 -->
<g id="edge6" class="edge"><title>c35:p20:e&#45;&gt;x11:s2:w</title>
<path fill="none" stroke="#e7298a" d="M236,-183C400.808,-183 423.839,-303.885 582.832,-308.843"/>
<polygon fill="#e7298a" stroke="#e7298a" points="582.947,-312.345 593,-309 583.055,-305.346 582.947,-312.345"/>
</g>
</g>
</svg>
